<svg width="40" height="40" viewBox="0 0 40 40" fill="none" xmlns="http://www.w3.org/2000/svg">
<mask id="mask0_7_36" style="mask-type:luminance" maskUnits="userSpaceOnUse" x="0" y="0" width="40" height="40">
<path d="M40 0H0V40H40V0Z" fill="white"/>
</mask>
<g mask="url(#mask0_7_36)">
<rect width="40" height="40" rx="7" fill="#209BB9"/>
<path fill-rule="evenodd" clip-rule="evenodd" d="M5.49907 3.44085C4.75702 3.44085 4.04711 3.81256 3.52509 4.47061C3.16689 4.92216 2.91722 5.48304 2.79589 6.08971L20 20.5478L37.2042 6.08971C37.0829 5.48304 36.8331 4.92216 36.4749 4.47061C35.9529 3.81256 35.2429 3.44088 34.5009 3.44088L5.49907 3.44085ZM37.2882 10.1462L20.7488 24.0457C20.2948 24.4271 19.7052 24.4271 19.2513 24.0457L2.71187 10.1462V33.0568C2.71187 33.9821 3.00336 34.8717 3.52509 35.5293C4.04711 36.1875 4.757 36.5592 5.49907 36.5592H34.5009C35.2429 36.5592 35.9529 36.1875 36.4749 35.5293C36.9967 34.8717 37.2882 33.9821 37.2882 33.0568V10.1462ZM1.61377 2.02965C2.64571 0.728805 4.04347 -3.84547e-07 5.49907 0L34.5009 6.40909e-06C35.9564 6.66547e-06 37.3542 0.728811 38.3862 2.02966C39.4184 3.33088 40 5.09811 40 6.94317V33.0568C40 34.9019 39.4184 36.6691 38.3862 37.9704C37.3542 39.2712 35.9564 40 34.5009 40H5.49907C4.04347 40 2.64571 39.2712 1.61376 37.9704C0.581525 36.6691 -3.03073e-07 34.9019 0 33.0568L3.63689e-06 6.94317C3.83893e-06 5.09808 0.581527 3.33088 1.61377 2.02965Z" fill="white"/>
</g>
</svg>
