<svg width="25" height="25" viewBox="0 0 25 25" fill="none" xmlns="http://www.w3.org/2000/svg">
<path d="M17.0587 15.7663L17.7562 16.429L17.0587 15.7675V15.7663ZM21.4766 23.0826L20.7779 22.4198L21.4754 23.0826H21.4766ZM19.7767 23.9928L19.8715 24.9479L19.7767 23.9915V23.9928ZM17.1728 17.0431L17.7562 16.4278L16.3613 15.1035L15.778 15.7201L17.1728 17.0431ZM19.6779 16.1688L22.1266 17.5803L23.0856 15.9124L20.6369 14.5022L19.6779 16.1688ZM22.5997 20.5019L20.7792 22.4185L22.1728 23.7441L23.9933 21.8275L22.5997 20.5019ZM19.6831 23.0339C17.8434 23.2146 13.0421 23.0608 7.83194 17.5764L6.43837 18.8994C12.1165 24.8774 17.5331 25.1799 19.8715 24.9479L19.6831 23.0339ZM7.83194 17.5764C2.86278 12.3446 2.02945 7.93072 1.92561 5.99491L0.00511864 6.09875C0.133322 8.47044 1.13844 13.3202 6.43837 18.8994L7.83194 17.5764ZM9.59602 9.06656L9.96268 8.6794L8.56911 7.35511L8.20117 7.74227L9.59602 9.06656ZM10.2524 3.85911L8.63578 1.5746L7.06529 2.68481L8.68065 4.9706L10.2524 3.8604V3.85911ZM3.16277 1.07976L1.15254 3.20017L2.54739 4.52447L4.56019 2.40533L3.16533 1.08104L3.16277 1.07976ZM8.8986 8.40378C8.66786 8.18142 8.43494 7.96133 8.19989 7.74355L8.19732 7.74611L8.19348 7.74996C8.17097 7.77373 8.14957 7.79855 8.12937 7.82432C8.0037 7.99065 7.90426 8.17527 7.83451 8.37173C7.70887 8.72427 7.6422 9.19092 7.72682 9.77294C7.89348 10.9165 8.64347 12.4536 10.6011 14.5163L11.996 13.1907C10.1652 11.2639 9.71397 10.0781 9.62936 9.49347C9.58833 9.21143 9.62936 9.064 9.64602 9.01657L9.65628 8.99221C9.64581 9.0091 9.6338 9.02498 9.62038 9.03964C9.61285 9.04834 9.60516 9.05688 9.59731 9.06528C9.59731 9.06528 9.59474 9.06528 8.8986 8.40378ZM10.6011 14.5163C12.5537 16.5726 14.028 17.379 15.1524 17.5623C15.7306 17.6559 16.1985 17.5803 16.5523 17.4405C16.7484 17.3636 16.9307 17.2553 17.0921 17.12C17.1079 17.1059 17.1232 17.0914 17.1382 17.0765L17.1562 17.0585C17.1592 17.056 17.1622 17.0534 17.1652 17.0508L17.169 17.047L17.1703 17.0444C17.1703 17.0444 17.1728 17.0431 16.4754 16.3803C15.778 15.7188 15.7793 15.7163 15.7793 15.7163L15.7818 15.715L15.7844 15.7111C15.7866 15.709 15.7887 15.7069 15.7908 15.7047L15.8036 15.6919C15.8187 15.6774 15.8345 15.6637 15.8511 15.6509C15.8639 15.6432 15.8626 15.6457 15.8459 15.6522C15.8203 15.6624 15.7049 15.7034 15.4613 15.6637C14.946 15.5791 13.8331 15.1253 11.996 13.1907L10.6011 14.5163ZM8.63578 1.5746C7.33579 -0.263772 4.73711 -0.575296 3.16533 1.08104L4.55634 2.40533C5.22685 1.70024 6.40888 1.75537 7.06529 2.68481L8.63578 1.5746ZM1.92561 5.99491C1.8974 5.48212 2.12176 4.9706 2.54739 4.52447L1.15254 3.20017C0.465369 3.92321 -0.0577011 4.92701 0.00511864 6.09875L1.92561 5.99491ZM20.7779 22.4198C20.4202 22.7967 20.0472 22.998 19.6831 23.0339L19.8715 24.9479C20.8292 24.8543 21.6048 24.3428 22.1728 23.7441L20.7779 22.4211V22.4198ZM9.96268 8.68069C11.2037 7.37434 11.2909 5.33084 10.2524 3.8604L8.68193 4.9706C9.22295 5.73595 9.13962 6.75513 8.56911 7.35511L9.96268 8.68069ZM22.1266 17.5803C23.1792 18.1867 23.3856 19.6763 22.5997 20.5032L23.9933 21.8275C25.6663 20.0661 25.1792 17.1188 23.0869 15.9137L22.1266 17.5803ZM17.7562 16.429C18.2498 15.9086 19.0203 15.7919 19.6779 16.1701L20.6369 14.5035C19.228 13.6933 17.4831 13.9266 16.3613 15.106L17.7562 16.429Z" fill="black"/>
</svg>
