<svg width="18" height="15" viewBox="0 0 18 15" fill="none" xmlns="http://www.w3.org/2000/svg">
<g clip-path="url(#clip0_15279_2759)">
<path fill-rule="evenodd" clip-rule="evenodd" d="M2.47458 1.29032C2.14066 1.29032 1.8212 1.42971 1.58629 1.67648C1.4251 1.84581 1.31275 2.05614 1.25815 2.28364L9 7.70542L16.7419 2.28364C16.6873 2.05614 16.5749 1.84581 16.4137 1.67648C16.1788 1.42971 15.8593 1.29033 15.5254 1.29033L2.47458 1.29032ZM16.7797 3.80484L9.33694 9.01714C9.13268 9.16018 8.86732 9.16018 8.66307 9.01714L1.22034 3.80484L1.22034 12.3963C1.22034 12.7433 1.35151 13.0769 1.58629 13.3235C1.8212 13.5703 2.14065 13.7097 2.47458 13.7097L15.5254 13.7097C15.8593 13.7097 16.1788 13.5703 16.4137 13.3235C16.6485 13.0769 16.7797 12.7433 16.7797 12.3963L16.7797 3.80484ZM0.726196 0.761118C1.19057 0.273302 1.81956 -1.44205e-07 2.47458 0L15.5254 2.40341e-06C16.1804 2.49955e-06 16.8094 0.273304 17.2738 0.761121C17.7383 1.24908 18 1.91179 18 2.60369V12.3963C18 13.0882 17.7383 13.7509 17.2738 14.2389C16.8094 14.7267 16.1804 15 15.5254 15L2.47458 15C1.81956 15 1.19057 14.7267 0.726194 14.2389C0.261686 13.7509 -1.36383e-07 13.0882 0 12.3963L1.6366e-06 2.60369C1.72752e-06 1.91178 0.261687 1.24908 0.726196 0.761118Z" fill="black"/>
</g>
<defs>
<clipPath id="clip0_15279_2759">
<rect width="18" height="15" fill="white"/>
</clipPath>
</defs>
</svg>
